<?xml version="1.0" encoding="utf-8"?>
<!-- Generator: Adobe Illustrator 16.0.0, SVG Export Plug-In . SVG Version: 6.00 Build 0)  -->
<!DOCTYPE svg PUBLIC "-//W3C//DTD SVG 1.1//EN" "http://www.w3.org/Graphics/SVG/1.1/DTD/svg11.dtd">
<svg version="1.1" id="Layer_1" focusable="false" xmlns="http://www.w3.org/2000/svg" xmlns:xlink="http://www.w3.org/1999/xlink"
	 x="0px" y="0px" width="612px" height="612px" viewBox="0 90 612 612" enable-background="new 0 90 612 612" xml:space="preserve">
<path fill="#FFFFFF" d="M600.405,318.065c4.662-3.705,11.595-0.239,11.595,5.618v244.441c0,31.676-25.699,57.375-57.375,57.375
	H57.375C25.699,625.5,0,599.801,0,568.125V323.803c0-5.977,6.813-9.324,11.595-5.618C38.37,338.983,73.87,365.4,195.792,453.973
	c25.221,18.408,67.774,57.136,110.208,56.896c42.673,0.359,86.063-39.206,110.327-56.896
	C538.249,365.4,573.631,338.864,600.405,318.065z M306,472.5c27.731,0.479,67.654-34.903,87.736-49.486
	c158.617-115.108,170.69-125.149,207.267-153.836c6.933-5.379,10.997-13.746,10.997-22.591v-22.711
	c0-31.676-25.699-57.375-57.375-57.375H57.375C25.699,166.5,0,192.199,0,223.875v22.711c0,8.845,4.064,17.093,10.997,22.591
	c36.576,28.568,48.649,38.728,207.267,153.836C238.345,437.597,278.269,472.979,306,472.5L306,472.5z"/>
</svg>
