<?xml version="1.0" encoding="utf-8"?>
<!-- Generator: Adobe Illustrator 16.0.0, SVG Export Plug-In . SVG Version: 6.00 Build 0)  -->
<!DOCTYPE svg PUBLIC "-//W3C//DTD SVG 1.1//EN" "http://www.w3.org/Graphics/SVG/1.1/DTD/svg11.dtd">
<svg version="1.1" id="Layer_1" xmlns="http://www.w3.org/2000/svg" xmlns:xlink="http://www.w3.org/1999/xlink" x="0px" y="0px"
	 width="612px" height="612px" viewBox="0 90 612 612" enable-background="new 0 90 612 612" xml:space="preserve">
<path fill="#FFFFFF" d="M306,115.5C151.087,115.5,25.5,241.087,25.5,396c0,154.912,125.587,280.5,280.5,280.5
	c154.912,0,280.5-125.588,280.5-280.5C586.5,241.087,460.912,115.5,306,115.5z M219.938,281.25
	c77.239,0,80.484,78.023,80.484,98.016v36.656c0,15.657-1.97,94.828-80.484,94.828c-78.387,0-80.484-76.697-80.484-94.828v-36.656
	C139.453,342.545,153.025,281.25,219.938,281.25z M402.422,281.25c64.948,0,70.125,56.119,70.125,69.328h-44.625
	c0-4.692-0.797-32.672-26.297-32.672c-23.894,0-24.703,22.701-24.703,26.297c0.025,40.443,95.625,26.131,95.625,104.391
	c0,59.517-58.694,62.156-69.328,62.156c-60.205,0-77.297-44.09-77.297-73.313h45.422c0,6.758-2.04,36.656,31.875,36.656
	c23.817,0,23.906-21.107,23.906-24.703c0-48.297-95.625-29.383-95.625-105.984C331.5,285.011,391.992,281.25,402.422,281.25z
	 M219.938,318.703c-5.839,0-35.859-3.321-35.859,59.766v37.453c0,10.123-1.906,57.375,35.859,57.375
	c36.694,0,35.063-47.252,35.063-57.375v-37.453C255,365.54,257.346,318.703,219.938,318.703z"/>
</svg>
