<?xml version="1.0" encoding="utf-8"?>
<!-- Generator: Adobe Illustrator 16.0.0, SVG Export Plug-In . SVG Version: 6.00 Build 0)  -->
<!DOCTYPE svg PUBLIC "-//W3C//DTD SVG 1.1//EN" "http://www.w3.org/Graphics/SVG/1.1/DTD/svg11.dtd">
<svg version="1.1" id="Layer_1" xmlns="http://www.w3.org/2000/svg" xmlns:xlink="http://www.w3.org/1999/xlink" x="0px" y="0px"
	 width="64px" height="64px" viewBox="0 0 64 64" enable-background="new 0 0 64 64" xml:space="preserve">
<g transform="matrix(1.53844,0,0,1.50092,-4.9266,-4.0244)">
	<path fill="#FFFFFF" d="M32.107,5.49c-0.663,0.532-2.602,4.215-4.554,8.611c-0.788,1.793-1.897,4.135-2.456,5.217
		c-1.678,3.19-5.757,8.997-7.646,10.851l-1.758,1.74l1.309,1.442c0.806,0.871,1.87,2.713,2.755,4.767
		c1.675,3.912,1.968,4.476,2.294,4.476c0.147,0,1.008-0.485,1.968-1.094c2.14-1.396,4.127-3.258,6.859-6.436
		c4.232-4.937,7.418-5.985,11.346-3.718c1.061,0.612,1.93,1.005,1.93,0.856c0-0.141-0.543-1.632-1.184-3.315
		c-0.656-1.669-2.425-6.413-3.924-10.518c-1.068-1.808-4.568-14.134-6.937-12.863 M23.647,15.625c-0.019,0-0.041,0-0.064,0.008
		c-3.594,1.611-4.891,2.342-5.952,3.367c-0.693,0.684-1.263,1.411-1.263,1.619c0,0.662,2.83,2.429,3.291,2.054
		c0.229-0.182,1.113-1.475,1.964-2.886C23.135,17.279,23.918,15.656,23.647,15.625 M13.596,22.734c-0.611,0-9.288,3.363-9.698,3.765
		c-0.122,0.117,0.009,0.325,0.287,0.484c0.278,0.163,1.866,1.249,3.546,2.418c1.675,1.169,3.14,2.111,3.242,2.115
		c0.101,0,0.87-0.409,1.695-0.909c1.731-1.074,5.074-4.376,5.056-4.998c-0.015-0.563-3.343-2.879-4.13-2.879"/>
</g>
</svg>
