<?xml version="1.0" encoding="utf-8"?>
<!-- Generator: Adobe Illustrator 16.0.0, SVG Export Plug-In . SVG Version: 6.00 Build 0)  -->
<!DOCTYPE svg PUBLIC "-//W3C//DTD SVG 1.1//EN" "http://www.w3.org/Graphics/SVG/1.1/DTD/svg11.dtd">
<svg version="1.1" id="Layer_1" xmlns="http://www.w3.org/2000/svg" xmlns:xlink="http://www.w3.org/1999/xlink" x="0px" y="0px"
	 width="383.95px" height="279.411px" viewBox="0 0 383.95 279.411" enable-background="new 0 0 383.95 279.411"
	 xml:space="preserve">
<path fill-rule="evenodd" clip-rule="evenodd" fill="#FFFFFF" d="M382.38,25.05C377.9,11.89,368.96,3.66,355.3,0.68
	c-0.71-0.16-1.399-0.45-2.09-0.68H30.75c-3.97,1.36-8.16,2.27-11.85,4.17C9.33,9.1,3.46,17.14,0.85,27.57
	C0.59,28.63,0.28,29.69,0,30.75v181.48c1.87,7.03,4.33,13.74,9.56,19.12c6.46,6.64,14.17,10.5,23.47,11.04
	c1.62,0.09,3.25,0.15,4.87,0.15h70.47v14.37h-4.53c-10.62,0-21.24-0.091-31.85,0.029c-8.28,0.09-13.46,7.11-11.08,14.8
	c1.26,4.07,4.43,6.141,8.11,7.671h245.97c7.05-3.37,9.64-7.73,8.289-13.971c-1.25-5.779-5.609-8.529-13.52-8.529h-34.38v-14.37
	h70.681c16.869,0,29.399-7.78,35.16-21.86c1.119-2.73,1.829-5.63,2.729-8.45V30.75C383.439,28.85,383.02,26.91,382.38,25.05z
	 M275.51,161.41c0.02,5.6-2.189,9.46-7.02,12.22c-23.17,13.29-46.311,26.63-69.4,40.07c-4.96,2.89-9.47,2.77-14.41-0.12
	c-22.97-13.39-46-26.68-69.08-39.88c-4.98-2.85-7.24-6.76-7.17-12.5c0.17-13.37,0.06-26.75,0.06-40.12c0-13.24,0.1-26.49-0.05-39.73
	c-0.07-5.73,2.17-9.62,7.19-12.48C138.72,55.7,161.75,42.41,184.71,29c4.96-2.9,9.46-2.98,14.41-0.1
	c23.09,13.43,46.229,26.78,69.399,40.06c4.851,2.77,7.01,6.65,6.99,12.23C275.41,107.93,275.41,134.67,275.51,161.41z"/>
<path fill-rule="evenodd" clip-rule="evenodd" fill="#FFFFFF" d="M241.493,79.729c-16.256,9.38-32.001,18.498-47.81,27.506
	c-0.86,0.49-2.483,0.498-3.339,0.009c-15.701-8.955-31.339-18.02-46.984-27.073c-0.172-0.101-0.244-0.376-0.497-0.789
	c0.908-0.595,1.788-1.233,2.724-1.773c14.573-8.418,29.13-16.866,43.774-25.159c1.24-0.703,3.455-1.03,4.576-0.397
	c15.414,8.703,30.716,17.604,46.04,26.466C240.379,78.753,240.713,79.102,241.493,79.729z"/>
<path fill-rule="evenodd" clip-rule="evenodd" fill="#FFFFFF" d="M131.314,99.467c1.396,0.711,2.494,1.211,3.534,1.81
	c14.385,8.284,28.786,16.539,43.098,24.949c1.239,0.729,2.65,2.487,2.663,3.779c0.174,17.741,0.118,35.484,0.107,53.226
	c0,0.454-0.121,0.909-0.235,1.711c-1.319-0.703-2.403-1.242-3.45-1.844c-14.384-8.285-28.792-16.53-43.095-24.952
	c-1.326-0.78-2.808-2.689-2.823-4.091c-0.192-17.365-0.127-34.733-0.112-52.101C131,101.256,131.171,100.557,131.314,99.467z"/>
<path fill-rule="evenodd" clip-rule="evenodd" fill="#FFFFFF" d="M252.732,99.631c0.091,1.343,0.225,2.417,0.227,3.49
	c0.013,16.745-0.012,33.49,0.035,50.236c0.006,1.997-0.266,3.449-2.275,4.592c-15.189,8.642-30.304,17.416-45.447,26.14
	c-0.507,0.292-1.069,0.49-2.047,0.93c0-4.754,0-9.083,0-13.414c0-13.622-0.05-27.243,0.079-40.863
	c0.013-1.337,0.756-3.294,1.786-3.901c15.273-8.994,30.652-17.809,46.015-26.653C251.499,99.962,251.98,99.883,252.732,99.631z"/>
</svg>
